<?xml version="1.0" standalone="no"?>
<svg xmlns="http://www.w3.org/2000/svg" viewBox="0 0 124.946 36" width="124.946" height="36"><g fill="#1eae30" color="#1eae30" transform="translate(0 6) scale(0.4705883)"><svg width="44.0" height="51.0" x="0.0" y="0.0" viewBox="0 0 44 51"><path fill="currentColor" fill-rule="evenodd" d="M21.998 0L0 12.571v25.143l4.19 2.395V15.002L21.999 4.827 39.81 15.002v20.28L21.998 45.459l-9.427-5.388V19.865l9.427-5.386 9.43 5.386v10.553l-9.43 5.387-1.045-.597V24.73l5.268-3.012-4.223-2.413-5.236 2.994v15.34l5.236 2.993 13.62-7.784V17.435l-13.62-7.781-13.617 7.78v25.068l13.617 7.784L44 37.714V12.571z"></path></svg></g><path fill="#06790a" fill-rule="nonzero" d="M9.70 12.31L9.70 12.31L12.79 12.31Q12.79 15.58 11.16 17.33Q9.53 19.08 6.55 19.08L6.55 19.08Q0 19.08 0 11.38L0 11.38L0 9.94Q0 3.86 3.36 2.33L3.36 2.33Q4.68 1.70 6.55 1.70L6.55 1.70Q9.29 1.70 11.00 3.20Q12.72 4.70 12.72 7.54L12.72 7.54L9.60 7.54Q9.34 6.12 8.66 5.40Q7.99 4.68 6.55 4.68L6.55 4.68Q4.87 4.68 4.06 5.74L4.06 5.74Q3.48 6.48 3.38 8.28L3.38 8.28Q3.34 8.86 3.34 9.84L3.34 9.84L3.34 11.33Q3.34 14.09 4.10 15.10L4.10 15.10Q4.90 16.10 6.56 16.10Q8.23 16.10 8.87 15.18Q9.50 14.26 9.70 12.31ZM22.80 12.74L22.80 12.74L22.80 11.50Q22.80 9.72 22.28 8.78Q21.77 7.85 20.14 7.85L20.14 7.85Q17.50 7.85 17.50 11.40L17.50 11.40L17.50 12.65Q17.50 16.46 20.14 16.46L20.14 16.46Q21.84 16.46 22.37 15.19L22.37 15.19Q22.80 14.18 22.80 12.74ZM25.92 12.02L25.92 12.02Q25.92 16.46 24.24 17.98L24.24 17.98Q22.82 19.27 20.14 19.27L20.14 19.27Q16.70 19.27 15.50 17.26L15.50 17.26Q14.38 15.41 14.38 12.02L14.38 12.02Q14.38 8.86 15.50 7.06L15.50 7.06Q16.75 5.04 20.05 5.04Q23.35 5.04 24.64 6.80Q25.92 8.57 25.92 12.02ZM30 0Q31.13 0 31.46 0.35Q31.80 0.70 31.80 1.81Q31.80 2.93 31.45 3.28Q31.10 3.62 29.99 3.62Q28.87 3.62 28.52 3.26Q28.18 2.90 28.18 1.80Q28.18 0.70 28.52 0.35Q28.87 0 30 0ZM31.54 5.74L31.54 18.94L28.42 18.94L28.42 5.74L31.54 5.74ZM45.65 9.74L45.65 18.94L42.53 18.94L42.53 10.18Q42.53 9 42.05 8.57Q41.57 8.14 40.70 8.14L40.70 8.14L37.90 9.31L37.90 18.94L34.78 18.94L34.78 5.23L37.10 5.23L37.82 6.86L41.66 5.09Q43.27 5.09 44.46 6.28Q45.65 7.46 45.65 9.74L45.65 9.74ZM59.80 3.32Q61.27 4.80 61.27 7.66Q61.27 10.51 59.80 11.99Q58.32 13.46 55.63 13.46L55.63 13.46L52.34 13.46L52.34 18.94L49.01 18.94L49.01 1.85L55.63 1.85Q58.32 1.85 59.80 3.32ZM57.94 7.66L57.94 7.66Q57.94 4.82 55.46 4.82L55.46 4.82L52.34 4.82L52.34 10.46L55.46 10.46Q56.66 10.46 57.30 9.82Q57.94 9.17 57.94 7.66ZM71.11 5.28L71.11 5.28L70.25 8.35Q69.89 8.21 69.43 8.21L69.43 8.21Q68.23 8.21 66.48 9.24L66.48 9.24L66.48 18.94L63.36 18.94L63.36 5.23L65.69 5.23L66.41 6.43L69.72 5.06Q69.96 5.04 70.37 5.04Q70.78 5.04 71.11 5.28ZM80.62 12.74L80.62 12.74L80.62 11.50Q80.62 9.72 80.10 8.78Q79.58 7.85 77.95 7.85L77.95 7.85Q75.31 7.85 75.31 11.40L75.31 11.40L75.31 12.65Q75.31 16.46 77.95 16.46L77.95 16.46Q79.66 16.46 80.18 15.19L80.18 15.19Q80.62 14.18 80.62 12.74ZM83.74 12.02L83.74 12.02Q83.74 16.46 82.06 17.98L82.06 17.98Q80.64 19.27 77.95 19.27L77.95 19.27Q74.52 19.27 73.32 17.26L73.32 17.26Q72.19 15.41 72.19 12.02L72.19 12.02Q72.19 8.86 73.32 7.06L73.32 7.06Q74.57 5.04 77.87 5.04Q81.17 5.04 82.45 6.80Q83.74 8.57 83.74 12.02ZM92.95 5.23L96.24 5.23L91.03 20.47Q90.67 21.50 90.10 22.08L90.10 22.08Q89.14 23.04 87.41 23.04L87.41 23.04L85.94 23.04L85.94 20.23L86.90 20.23Q87.58 20.23 87.90 20.00Q88.22 19.78 88.46 19.10L88.46 19.10L88.70 18.43L84.58 5.23L87.86 5.23L90.31 14.76L92.95 5.23Z" transform="translate(28.706, 8.532)"></path></svg>